<?xml version="1.0" encoding="utf-8"?>
<!-- Generator: Adobe Illustrator 28.1.0, SVG Export Plug-In . SVG Version: 6.00 Build 0)  -->
<svg version="1.1" id="Camada_1" xmlns="http://www.w3.org/2000/svg" xmlns:xlink="http://www.w3.org/1999/xlink" x="0px" y="0px"
	 viewBox="0 0 421 412" style="enable-background:new 0 0 421 412;" xml:space="preserve">
<style type="text/css">
	.st0{fill:#E1CFBB;stroke:#002531;stroke-width:4;stroke-linejoin:round;}
</style>
<path class="st0" d="M103.7,193.7c23.9,29.4,48,22.1,57.1,14.8c18.7-14.3,4-50.1-12.9-63.1c-16.9-13-24.9-23-34.4-21.9
	C104,124.8,73.9,156.9,103.7,193.7z"/>
<path class="st0" d="M165.9,113.6c11.7,40.7,46.1,53.8,57.2,50.2c22.7-6.6,19.9-40,8.8-60.7C220.9,82.4,209.6,66,200.3,63
	C191,60.1,151.3,62.7,165.9,113.6z"/>
<path class="st0" d="M73.9,281.2c19.4,24.1,53.5,18.3,63,11.7c19.4-13,9.4-42.8-5.1-53.2c-14.6-10.4-28.1-10.1-37.3-8.7
	C85.3,232.4,49.7,251.1,73.9,281.2z"/>
<path class="st0" d="M172.7,322.2c15.3,42.2,44.5,42.6,57.9,35.5c96.7-44.9,121.4-69.2,116.9-87.8c-4.5-18.6-27.3-63.6-110.9-78.2
	C166.4,179.7,153.6,269.4,172.7,322.2z"/>
</svg>
